# xmcd
#
# Track frame offsets:
# 150
# 14360
# 29389
# 45466
# 57877
# 78515
# 89798
# 112565
# 130376
#
# Disc length: 1929 seconds
#
#
# Revision: 0
# Processed by: cddbd v1.4PL0 Copyright (c) Steve Scherf et al.
# Submitted via: FreeRIP 2.00 
#
DISCID=6b078709
DTITLE=Night School - Rough Stuff
DYEAR=2003
DGENRE=Country
TTITLE0=Sharp Dressed Man
TTITLE1=All Night Long
TTITLE2=Rough Boy
TTITLE3=Back in the USSR
TTITLE4=Angel Eyes
TTITLE5=I Want You Bad
TTITLE6=Picture
TTITLE7=Red House
TTITLE8=I Saw Her Standing There
EXTD=Recorded during practice sessions
EXTT0=
EXTT1=
EXTT2=
EXTT3=
EXTT4=
EXTT5=
EXTT6=
EXTT7=
EXTT8=
PLAYORDER=
